<svg xmlns="http://www.w3.org/2000/svg" xmlns:xlink="http://www.w3.org/1999/xlink" width="559.999" height="560" viewBox="0 0 559.999 560"><defs><linearGradient id="a" x1="0.703" y1="-0.054" x2="0.393" y2="0.859" gradientUnits="objectBoundingBox"><stop offset="0" stop-color="#2af9e1"/><stop offset="1" stop-color="#6d24fb"/></linearGradient></defs><path d="M174.59,556.051a215.926,215.926,0,0,1-68.971-397.479l-.287,0c.016-.008.622-.3,1.669-.817,4.395-2.568,8.943-5.013,13.523-7.27,8.37-4.852,14.415-9.114,17.968-12.667,3.162-3.161,6.857-8.282,10.987-15.223,2.761-5.755,5.808-11.451,9.059-16.924.142-.29.231-.483.263-.553.014-.029.014-.029.014-.029v.119A215.811,215.811,0,1,1,441.194,408.651c-8.526,5.184-14.733,9.7-18.451,13.414-5.044,5.044-10.952,14.176-15.019,20.948A216.069,216.069,0,0,1,174.59,556.051ZM153.769,171.627V388.38a17.186,17.186,0,0,0,17.167,17.166H387.688a17.185,17.185,0,0,0,17.166-17.166V171.627a17.182,17.182,0,0,0-17.166-17.161H170.935A17.183,17.183,0,0,0,153.769,171.627Zm94.529,163.2a3,3,0,0,1-3-3V232.839a3,3,0,0,1,3-3h63.992a3,3,0,0,1,3,3v98.987a3,3,0,0,1-3,3Z" fill="url(#a)"/></svg>